<svg width="1920" height="204" viewBox="0 0 1920 204" fill="none" xmlns="http://www.w3.org/2000/svg">
<path d="M0 204L45.6889 196.7C91.2 189.3 182.578 174.7 274.133 165.5C365.689 156.3 457.422 152.7 548.978 152.7C640.533 152.7 731.911 156.3 823.111 152.8C914.311 149.3 1005.69 138.7 1096.89 142C1188.09 145.3 1279.47 162.7 1371.02 162.8C1462.58 163 1554.31 146 1645.87 139.8C1737.42 133.7 1828.8 138.3 1874.31 140.7L1920 143V0H1874.31C1828.8 0 1737.42 0 1645.87 0C1554.31 0 1462.58 0 1371.02 0C1279.47 0 1188.09 0 1096.89 0C1005.69 0 914.311 0 823.111 0C731.911 0 640.533 0 548.978 0C457.422 0 365.689 0 274.133 0C182.578 0 91.2 0 45.6889 0H0V204Z" fill="#5543B0"/>
</svg>
