<svg width="1920" height="112" viewBox="0 0 1920 112" fill="none" xmlns="http://www.w3.org/2000/svg">
<path d="M0 112L45.6889 107.5C91.2 103 182.578 94 274.133 95C365.689 96 457.422 107 548.978 104.5C640.533 102 731.911 86 823.111 77.7C914.311 69.3 1005.69 68.7 1096.89 73C1188.09 77.3 1279.47 86.7 1371.02 91.2C1462.58 95.7 1554.31 95.3 1645.87 97.7C1737.42 100 1828.8 105 1874.31 107.5L1920 110V0H1874.31C1828.8 0 1737.42 0 1645.87 0C1554.31 0 1462.58 0 1371.02 0C1279.47 0 1188.09 0 1096.89 0C1005.69 0 914.311 0 823.111 0C731.911 0 640.533 0 548.978 0C457.422 0 365.689 0 274.133 0C182.578 0 91.2 0 45.6889 0H0V112Z" fill="#1E2336"/>
</svg>
