<svg width="1920" height="133" viewBox="0 0 1920 133" fill="none" xmlns="http://www.w3.org/2000/svg">
<path d="M0 133L45.6889 126.8C91.2 120.7 182.578 108.3 274.133 105C365.689 101.7 457.422 107.3 548.978 112.5C640.533 117.7 731.911 122.3 823.111 121.5C914.311 120.7 1005.69 114.3 1096.89 109.2C1188.09 104 1279.47 100 1371.02 101.3C1462.58 102.7 1554.31 109.3 1645.87 113C1737.42 116.7 1828.8 117.3 1874.31 117.7L1920 118V0H1874.31C1828.8 0 1737.42 0 1645.87 0C1554.31 0 1462.58 0 1371.02 0C1279.47 0 1188.09 0 1096.89 0C1005.69 0 914.311 0 823.111 0C731.911 0 640.533 0 548.978 0C457.422 0 365.689 0 274.133 0C182.578 0 91.2 0 45.6889 0H0V133Z" fill="#49318C"/>
</svg>
