<svg width="1920" height="55" viewBox="0 0 1920 55" fill="none" xmlns="http://www.w3.org/2000/svg">
<path d="M0 39L45.6889 42.5C91.2 46 182.578 53 274.133 53C365.689 53 457.422 46 548.978 44.3C640.533 42.7 731.911 46.3 823.111 49.5C914.311 52.7 1005.69 55.3 1096.89 54C1188.09 52.7 1279.47 47.3 1371.02 47.3C1462.58 47.3 1554.31 52.7 1645.87 53.7C1737.42 54.7 1828.8 51.3 1874.31 49.7L1920 48V0H1874.31C1828.8 0 1737.42 0 1645.87 0C1554.31 0 1462.58 0 1371.02 0C1279.47 0 1188.09 0 1096.89 0C1005.69 0 914.311 0 823.111 0C731.911 0 640.533 0 548.978 0C457.422 0 365.689 0 274.133 0C182.578 0 91.2 0 45.6889 0H0V39Z" fill="#181C2B"/>
</svg>
